<mxfile host="Electron" modified="2024-01-13T18:56:06.687Z" agent="Mozilla/5.0 (X11; Linux x86_64) AppleWebKit/537.36 (KHTML, like Gecko) draw.io/22.0.2 Chrome/114.0.5735.289 Electron/25.9.8 Safari/537.36" etag="JLBs-C34P-SOpeS4frHS" version="22.0.2" type="device">
  <diagram name="Page-1" id="qhg5D8EdoCbgJg22Zkt4">
    <mxGraphModel dx="537" dy="308" grid="1" gridSize="10" guides="1" tooltips="1" connect="1" arrows="1" fold="1" page="1" pageScale="1" pageWidth="827" pageHeight="1169" math="0" shadow="0">
      <root>
        <mxCell id="0" />
        <mxCell id="1" parent="0" />
        <mxCell id="QnuzLXdswAq8xHTCM-2I-11" value="" style="endArrow=classic;startArrow=none;html=1;rounded=0;fontColor=#000000;strokeColor=#000000;fillColor=#000000;endFill=1;startFill=0;spacing=2;strokeWidth=2;" parent="1" edge="1">
          <mxGeometry width="100" height="100" relative="1" as="geometry">
            <mxPoint x="518" y="504" as="sourcePoint" />
            <mxPoint x="455" y="440" as="targetPoint" />
          </mxGeometry>
        </mxCell>
        <mxCell id="QnuzLXdswAq8xHTCM-2I-12" value="" style="endArrow=classic;startArrow=none;html=1;rounded=0;fontColor=#000000;strokeColor=#000000;fillColor=#000000;endFill=1;startFill=0;spacing=2;strokeWidth=2;" parent="1" edge="1">
          <mxGeometry width="100" height="100" relative="1" as="geometry">
            <mxPoint x="530" y="503" as="sourcePoint" />
            <mxPoint x="640" y="434" as="targetPoint" />
          </mxGeometry>
        </mxCell>
        <mxCell id="QnuzLXdswAq8xHTCM-2I-13" value="" style="endArrow=none;startArrow=classic;html=1;rounded=0;fontColor=#000000;strokeColor=#000000;fillColor=#000000;endFill=0;spacing=2;strokeWidth=2;" parent="1" edge="1">
          <mxGeometry width="100" height="100" relative="1" as="geometry">
            <mxPoint x="466" y="438" as="sourcePoint" />
            <mxPoint x="630" y="430" as="targetPoint" />
          </mxGeometry>
        </mxCell>
        <mxCell id="DYV1H6bN4v_fuT85zL94-31" value="" style="group" vertex="1" connectable="0" parent="1">
          <mxGeometry x="610" y="379.93" width="91.26" height="74.15" as="geometry" />
        </mxCell>
        <mxCell id="QnuzLXdswAq8xHTCM-2I-4" value="" style="rounded=0;whiteSpace=wrap;html=1;rotation=30;strokeColor=#000000;fillColor=#000000;container=0;" parent="DYV1H6bN4v_fuT85zL94-31" vertex="1">
          <mxGeometry x="4.364318836257171" y="26.95268210222853" width="80.8555444426673" height="4.80359158210045" as="geometry" />
        </mxCell>
        <mxCell id="QnuzLXdswAq8xHTCM-2I-1" value="" style="rounded=0;whiteSpace=wrap;html=1;rotation=30;strokeColor=#000000;fillColor=#000000;container=0;" parent="DYV1H6bN4v_fuT85zL94-31" vertex="1">
          <mxGeometry x="35.17567685911579" y="12.917879752545108" width="21.899256578946837" height="31.897411035787737" as="geometry" />
        </mxCell>
        <mxCell id="QnuzLXdswAq8xHTCM-2I-2" value="" style="rounded=0;whiteSpace=wrap;html=1;rotation=30;strokeColor=#000000;fillColor=#000000;container=0;" parent="DYV1H6bN4v_fuT85zL94-31" vertex="1">
          <mxGeometry x="55.719335531235075" y="38.492701796138064" width="34.67382291666583" height="12.758964414315097" as="geometry" />
        </mxCell>
        <mxCell id="QnuzLXdswAq8xHTCM-2I-3" value="" style="rounded=0;whiteSpace=wrap;html=1;rotation=30;strokeColor=#000000;fillColor=#000000;container=0;" parent="DYV1H6bN4v_fuT85zL94-31" vertex="1">
          <mxGeometry x="0.8668415520990942" y="7.814293986819073" width="34.67382291666583" height="12.758964414315097" as="geometry" />
        </mxCell>
        <mxCell id="QnuzLXdswAq8xHTCM-2I-5" value="" style="rounded=0;whiteSpace=wrap;html=1;rotation=120;strokeColor=#000000;fillColor=#000000;container=0;" parent="DYV1H6bN4v_fuT85zL94-31" vertex="1">
          <mxGeometry x="25.32101139858971" y="33.33222281544927" width="34.67382291666583" height="0.9569223310736322" as="geometry" />
        </mxCell>
        <mxCell id="QnuzLXdswAq8xHTCM-2I-6" value="" style="shape=dataStorage;whiteSpace=wrap;html=1;fixedSize=1;rotation=120;strokeColor=#000000;fillColor=#000000;container=0;" parent="DYV1H6bN4v_fuT85zL94-31" vertex="1">
          <mxGeometry x="28" y="32.83" width="11.22" height="36.11" as="geometry" />
        </mxCell>
        <mxCell id="QnuzLXdswAq8xHTCM-2I-7" value="" style="rounded=0;whiteSpace=wrap;html=1;rotation=30;strokeColor=#000000;fillColor=#000000;container=0;" parent="DYV1H6bN4v_fuT85zL94-31" vertex="1">
          <mxGeometry x="40.998005443545466" y="9.069164538608458" width="13.86952916666633" height="31.897411035787737" as="geometry" />
        </mxCell>
        <mxCell id="DYV1H6bN4v_fuT85zL94-40" value="" style="group" vertex="1" connectable="0" parent="1">
          <mxGeometry x="508.53999999999996" y="500" width="68.46" height="65.07" as="geometry" />
        </mxCell>
        <mxCell id="QnuzLXdswAq8xHTCM-2I-8" value="" style="shape=or;whiteSpace=wrap;html=1;rotation=-90;strokeColor=#000000;fillColor=#000000;" parent="DYV1H6bN4v_fuT85zL94-40" vertex="1">
          <mxGeometry x="14.832999999999998" y="11.441209640365685" width="38.794" height="68.4622855654906" as="geometry" />
        </mxCell>
        <mxCell id="QnuzLXdswAq8xHTCM-2I-9" value="" style="shape=dataStorage;whiteSpace=wrap;html=1;fixedSize=1;rotation=240;strokeColor=#000000;fillColor=#000000;" parent="DYV1H6bN4v_fuT85zL94-40" vertex="1">
          <mxGeometry x="14.95" y="-3.94" width="9.24" height="36.52" as="geometry" />
        </mxCell>
        <mxCell id="QnuzLXdswAq8xHTCM-2I-10" value="" style="rounded=0;whiteSpace=wrap;html=1;rotation=240;strokeColor=#000000;fillColor=#000000;" parent="DYV1H6bN4v_fuT85zL94-40" vertex="1">
          <mxGeometry x="5.704999999999999" y="25.133666753463807" width="43.35799999999999" height="1.369245711309812" as="geometry" />
        </mxCell>
        <mxCell id="DYV1H6bN4v_fuT85zL94-41" value="" style="group;rotation=-51.5;" vertex="1" connectable="0" parent="1">
          <mxGeometry x="400" y="379.93" width="91.26" height="74.15" as="geometry" />
        </mxCell>
        <mxCell id="DYV1H6bN4v_fuT85zL94-42" value="" style="rounded=0;whiteSpace=wrap;html=1;rotation=-21.5;strokeColor=#000000;fillColor=#000000;container=0;" vertex="1" parent="DYV1H6bN4v_fuT85zL94-41">
          <mxGeometry x="-1" y="31" width="80.8555444426673" height="4.80359158210045" as="geometry" />
        </mxCell>
        <mxCell id="DYV1H6bN4v_fuT85zL94-43" value="" style="rounded=0;whiteSpace=wrap;html=1;rotation=-21.5;strokeColor=#000000;fillColor=#000000;container=0;" vertex="1" parent="DYV1H6bN4v_fuT85zL94-41">
          <mxGeometry x="28" y="16" width="21.899256578946837" height="31.897411035787737" as="geometry" />
        </mxCell>
        <mxCell id="DYV1H6bN4v_fuT85zL94-44" value="" style="rounded=0;whiteSpace=wrap;html=1;rotation=-21.5;strokeColor=#000000;fillColor=#000000;container=0;" vertex="1" parent="DYV1H6bN4v_fuT85zL94-41">
          <mxGeometry x="51" y="14" width="34.67382291666583" height="12.758964414315097" as="geometry" />
        </mxCell>
        <mxCell id="DYV1H6bN4v_fuT85zL94-45" value="" style="rounded=0;whiteSpace=wrap;html=1;rotation=-21.5;strokeColor=#000000;fillColor=#000000;container=0;" vertex="1" parent="DYV1H6bN4v_fuT85zL94-41">
          <mxGeometry x="-6" y="38" width="34.67382291666583" height="12.758964414315097" as="geometry" />
        </mxCell>
        <mxCell id="DYV1H6bN4v_fuT85zL94-46" value="" style="rounded=0;whiteSpace=wrap;html=1;rotation=68.5;strokeColor=#000000;fillColor=#000000;container=0;" vertex="1" parent="DYV1H6bN4v_fuT85zL94-41">
          <mxGeometry x="24" y="36" width="34.67382291666583" height="0.9569223310736322" as="geometry" />
        </mxCell>
        <mxCell id="DYV1H6bN4v_fuT85zL94-47" value="" style="shape=dataStorage;whiteSpace=wrap;html=1;fixedSize=1;rotation=68.5;strokeColor=#000000;fillColor=#000000;container=0;" vertex="1" parent="DYV1H6bN4v_fuT85zL94-41">
          <mxGeometry x="43" y="37" width="11.22" height="36.11" as="geometry" />
        </mxCell>
        <mxCell id="DYV1H6bN4v_fuT85zL94-48" value="" style="rounded=0;whiteSpace=wrap;html=1;rotation=-21.5;strokeColor=#000000;fillColor=#000000;container=0;" vertex="1" parent="DYV1H6bN4v_fuT85zL94-41">
          <mxGeometry x="31" y="13.07" width="13.86952916666633" height="31.897411035787737" as="geometry" />
        </mxCell>
        <mxCell id="DYV1H6bN4v_fuT85zL94-49" value="Victim" style="text;html=1;strokeColor=none;fillColor=none;align=center;verticalAlign=middle;whiteSpace=wrap;rounded=0;fontStyle=1" vertex="1" parent="1">
          <mxGeometry x="393" y="438" width="60" height="30" as="geometry" />
        </mxCell>
        <mxCell id="DYV1H6bN4v_fuT85zL94-50" value="&lt;b&gt;Defender&lt;/b&gt;" style="text;html=1;strokeColor=none;fillColor=none;align=center;verticalAlign=middle;whiteSpace=wrap;rounded=0;" vertex="1" parent="1">
          <mxGeometry x="634" y="437" width="60" height="30" as="geometry" />
        </mxCell>
        <mxCell id="DYV1H6bN4v_fuT85zL94-51" value="&lt;b&gt;Attacker&lt;/b&gt;" style="text;html=1;strokeColor=none;fillColor=none;align=center;verticalAlign=middle;whiteSpace=wrap;rounded=0;" vertex="1" parent="1">
          <mxGeometry x="538" y="505" width="60" height="30" as="geometry" />
        </mxCell>
        <mxCell id="DYV1H6bN4v_fuT85zL94-52" value="200km" style="text;html=1;strokeColor=none;fillColor=none;align=center;verticalAlign=middle;whiteSpace=wrap;rounded=0;fontStyle=0;fontSize=10;rotation=-2.4;" vertex="1" parent="1">
          <mxGeometry x="529" y="430" width="43" height="20" as="geometry" />
        </mxCell>
        <mxCell id="DYV1H6bN4v_fuT85zL94-54" value="1000km" style="text;html=1;strokeColor=none;fillColor=none;align=center;verticalAlign=middle;whiteSpace=wrap;rounded=0;fontStyle=0;fontSize=10;rotation=-32.8;" vertex="1" parent="1">
          <mxGeometry x="567" y="464" width="43" height="20" as="geometry" />
        </mxCell>
        <mxCell id="DYV1H6bN4v_fuT85zL94-55" value="700km" style="text;html=1;strokeColor=none;fillColor=none;align=center;verticalAlign=middle;whiteSpace=wrap;rounded=0;fontStyle=0;fontSize=10;rotation=45;" vertex="1" parent="1">
          <mxGeometry x="465" y="470" width="43" height="20" as="geometry" />
        </mxCell>
        <mxCell id="DYV1H6bN4v_fuT85zL94-58" value="" style="group;rotation=-3.3;" vertex="1" connectable="0" parent="1">
          <mxGeometry x="529" y="415" width="36" height="20" as="geometry" />
        </mxCell>
        <mxCell id="DYV1H6bN4v_fuT85zL94-1" value="D→V" style="text;html=1;strokeColor=none;fillColor=none;align=center;verticalAlign=middle;whiteSpace=wrap;rounded=0;fontSize=7;fontColor=#000000;rotation=-3.3;" vertex="1" parent="DYV1H6bN4v_fuT85zL94-58">
          <mxGeometry x="11" y="7" width="25" height="13" as="geometry" />
        </mxCell>
        <mxCell id="DYV1H6bN4v_fuT85zL94-53" value="D" style="text;html=1;strokeColor=none;fillColor=none;align=center;verticalAlign=middle;whiteSpace=wrap;rounded=0;fontStyle=0;rotation=-3.3;" vertex="1" parent="DYV1H6bN4v_fuT85zL94-58">
          <mxGeometry width="21.46" height="18" as="geometry" />
        </mxCell>
        <mxCell id="DYV1H6bN4v_fuT85zL94-59" value="" style="group;rotation=-32;" vertex="1" connectable="0" parent="1">
          <mxGeometry x="560" y="452" width="36" height="20" as="geometry" />
        </mxCell>
        <mxCell id="DYV1H6bN4v_fuT85zL94-60" value="A→D" style="text;html=1;strokeColor=none;fillColor=none;align=center;verticalAlign=middle;whiteSpace=wrap;rounded=0;fontSize=7;fontColor=#000000;rotation=-32;" vertex="1" parent="DYV1H6bN4v_fuT85zL94-59">
          <mxGeometry x="12" y="4" width="25" height="13" as="geometry" />
        </mxCell>
        <mxCell id="DYV1H6bN4v_fuT85zL94-61" value="D" style="text;html=1;strokeColor=none;fillColor=none;align=center;verticalAlign=middle;whiteSpace=wrap;rounded=0;fontStyle=0;rotation=-32;" vertex="1" parent="DYV1H6bN4v_fuT85zL94-59">
          <mxGeometry x="1" y="4" width="21.46" height="18" as="geometry" />
        </mxCell>
        <mxCell id="DYV1H6bN4v_fuT85zL94-62" value="" style="group;rotation=45;" vertex="1" connectable="0" parent="1">
          <mxGeometry x="478" y="458" width="36" height="20" as="geometry" />
        </mxCell>
        <mxCell id="DYV1H6bN4v_fuT85zL94-63" value="A→V" style="text;html=1;strokeColor=none;fillColor=none;align=center;verticalAlign=middle;whiteSpace=wrap;rounded=0;fontSize=7;fontColor=#000000;rotation=45;" vertex="1" parent="DYV1H6bN4v_fuT85zL94-62">
          <mxGeometry x="6" y="10" width="25" height="13" as="geometry" />
        </mxCell>
        <mxCell id="DYV1H6bN4v_fuT85zL94-64" value="D" style="text;html=1;strokeColor=none;fillColor=none;align=center;verticalAlign=middle;whiteSpace=wrap;rounded=0;fontStyle=0;rotation=45;" vertex="1" parent="DYV1H6bN4v_fuT85zL94-62">
          <mxGeometry x="3" y="-4" width="21.46" height="18" as="geometry" />
        </mxCell>
      </root>
    </mxGraphModel>
  </diagram>
</mxfile>
